<svg width="85" height="74" viewBox="0 0 85 74" fill="none" xmlns="http://www.w3.org/2000/svg">
<path d="M13.8581 10.3545C13.8952 10.373 14.3031 9.00095 14.3216 8.92679C14.5627 7.72158 14.507 6.46074 14.1177 5.31116C11.7814 -1.60489 -0.530266 -2.32802 0.137235 6.49783C0.359735 9.44595 2.41786 11.0591 4.88391 12.2828L34.3837 27.042C34.3837 27.042 39.5198 29.6008 42.7275 25.7626C42.7275 25.7441 14.0064 10.4287 13.8581 10.3545ZM10.7802 8.42617C10.0756 9.64992 7.99891 9.77971 6.16328 8.72283C4.32766 7.66595 3.40058 5.81178 4.10516 4.56949C4.80975 3.34574 6.88641 3.21595 8.72204 4.27282C10.5577 5.34824 11.4848 7.20241 10.7802 8.42617Z" fill="white"/>
<path opacity="0.2" d="M38.092 26.8566C36.3491 26.8566 34.8472 26.1335 34.8287 26.1335L5.32884 11.3743C2.54759 9.98365 1.3053 8.50032 1.13842 6.42365C1.00863 4.7549 1.398 3.43844 2.26946 2.49281C3.14092 1.54719 4.51301 1.02802 6.12614 1.02802C8.83322 1.02802 12.1151 2.62261 13.1349 5.6449C13.4501 6.60907 13.5243 7.66595 13.3018 8.70428C13.2461 8.8897 13.0051 9.76115 12.9309 9.92803C13.0236 9.68699 13.3389 9.35324 13.8395 9.35324L14.3216 9.46448L13.3574 11.263C13.4872 11.3372 35.422 23.037 40.966 25.9851C40.1687 26.5599 39.2045 26.8566 38.092 26.8566ZM6.23739 2.54844C4.88384 2.54844 3.78988 3.10469 3.23363 4.06886C2.71446 4.95886 2.73301 6.0899 3.27072 7.16532C3.7528 8.12948 4.58718 9.00095 5.66259 9.61282C6.60822 10.1691 7.68363 10.4657 8.66634 10.4657C10.0199 10.4657 11.1138 9.90949 11.6701 8.94532C12.1893 8.05532 12.1707 6.92427 11.633 5.84885C11.1509 4.88469 10.3166 4.01323 9.24114 3.40136C8.27697 2.8451 7.2201 2.54844 6.23739 2.54844Z" fill="white"/>
<path d="M15.4527 20.2928L10.0014 17.4003C10.0014 17.4003 1.02724 19.9591 0.378284 25.0951C0.248492 26.0778 0.990159 27.5241 1.47224 28.3028C3.06683 30.8616 6.42287 31.7145 9.07434 30.3981C11.3179 29.2856 14.4885 27.3016 14.4885 24.4462L14.1733 20.2743H15.4527V20.2928ZM8.87038 27.246C7.10892 28.4326 5.03225 28.4326 4.2535 27.246C3.4562 26.0593 4.2535 24.1495 6.0335 22.9814C7.79496 21.7947 9.87163 21.7947 10.6504 22.9814C11.4291 24.1495 10.6318 26.0593 8.87038 27.246Z" fill="white"/>
<path opacity="0.2" d="M6.45997 30.0087C4.75413 30.0087 3.21517 29.1743 2.36225 27.7837C1.73184 26.7639 1.34246 25.7256 1.39809 25.2435C1.82455 21.7762 7.34997 19.3287 9.89018 18.5128L13.135 20.2372L13.4687 24.5018C13.4502 26.2262 11.8185 27.9135 8.62935 29.5081C7.96185 29.8418 7.22018 30.0087 6.45997 30.0087ZM8.70351 21.0716C7.6281 21.0716 6.47851 21.4424 5.45872 22.1285C4.1608 22.9999 3.23372 24.2608 2.99267 25.5031C2.8258 26.356 2.95559 27.1533 3.40059 27.8208C3.95684 28.6737 4.97663 29.1558 6.20039 29.1558C7.2758 29.1558 8.42539 28.7849 9.44518 28.0989C10.7431 27.2274 11.6702 25.9666 11.9112 24.7243C12.0781 23.8714 11.9483 23.0741 11.5033 22.4066C10.9285 21.5537 9.90872 21.0716 8.70351 21.0716Z" fill="white"/>
<path d="M51.8685 2.34448H31.658C29.4516 2.34448 27.653 4.14303 27.653 6.34949V8.33345L22.1461 10.781L27.6345 14.0814C27.8384 14.1926 28.0609 14.3039 28.2649 14.4151C29.1178 14.8601 29.9707 15.3237 30.8237 15.7687C31.4726 16.121 32.1216 16.4547 32.752 16.807V7.46199H50.7189V43.3958H32.752V37.4624C32.6964 37.4439 32.6407 37.3883 32.5666 37.3512L32.752 37.4624C32.0474 33.9766 29.1178 33.3833 27.6345 33.3091H27.6159V33.3462C27.3378 33.3276 27.0597 33.3091 26.8001 33.3277C26.763 33.3277 26.763 33.3277 26.763 33.3277C26.4664 33.3462 26.1882 33.3833 25.8916 33.4389C23.3699 33.921 21.3859 35.701 21.3859 35.701C11.7072 43.2475 12.3932 31.696 12.3932 31.696C11.874 34.2733 11.2807 38.5193 14.1918 39.9656C16.8432 41.2635 20.3291 39.7431 22.4799 38.2227C23.4255 37.5552 24.5566 37.036 25.7432 37.3141C26.0955 37.3883 26.9855 37.8889 27.6345 38.4452V44.5268C27.6345 46.7333 29.433 48.5318 31.6395 48.5318H51.8499C54.0564 48.5318 55.8549 46.7333 55.8549 44.5268V6.34949C55.8735 4.14303 54.0749 2.34448 51.8685 2.34448ZM41.7076 47.716C40.6693 47.716 39.8349 46.8816 39.8349 45.8433C39.8349 44.805 40.6693 43.9706 41.7076 43.9706C42.746 43.9706 43.5803 44.805 43.5803 45.8433C43.5803 46.8816 42.746 47.716 41.7076 47.716Z" fill="white"/>
<path opacity="0.2" d="M44.0811 47.512C44.4148 47.0485 44.6002 46.4737 44.6002 45.8618C44.6002 45.3426 44.4705 44.8606 44.2109 44.4341H51.7573V6.44218H31.7509V15.1012C31.6025 15.027 31.2317 14.823 31.2317 14.823C31.2317 14.823 28.265 13.247 28.1352 13.1914L24.3713 10.9107L28.6729 9.00093V6.34947C28.6729 4.69926 30.0079 3.36426 31.6581 3.36426H51.8686C53.5188 3.36426 54.8538 4.69926 54.8538 6.34947V44.5268C54.8538 46.177 53.5188 47.512 51.8686 47.512H44.0811ZM31.6581 47.512C30.0079 47.512 28.6729 46.177 28.6729 44.5268V37.9816L28.3206 37.6849C27.6161 37.0731 26.5777 36.4612 25.9844 36.3128C25.6877 36.2387 25.3911 36.2016 25.0944 36.2016C24.0561 36.2016 23.0177 36.591 21.9052 37.3697C20.0881 38.6491 18.0671 39.4279 16.454 39.4279C15.8792 39.4279 15.3415 39.3351 14.8594 39.1312C15.2117 39.2239 15.5825 39.2795 15.9719 39.2795C17.6592 39.2795 19.6431 38.371 22.035 36.5168L22.0535 36.4983L22.0721 36.4797C22.0906 36.4612 23.8892 34.8851 26.0956 34.4587C26.3367 34.4216 26.5777 34.3845 26.8373 34.366H26.8744C26.9486 34.366 27.0227 34.366 27.0969 34.366C27.2452 34.366 27.3936 34.366 27.5419 34.3845L28.5061 34.4587C29.8781 34.7183 31.2873 35.5156 31.7323 37.5922V44.4341H39.1675C38.9265 44.8606 38.7782 45.3426 38.7782 45.8618C38.7782 46.4737 38.9636 47.0485 39.2973 47.512H31.6581Z" fill="white"/>
<path d="M34.5321 14.3409H38.4444C39.0934 14.3409 39.6311 13.8032 39.6311 13.1543V9.64989C39.6311 9.00093 39.0934 8.46323 38.4444 8.46323H34.5321C33.8832 8.46323 33.3455 9.00093 33.3455 9.64989V13.1543C33.3455 13.8032 33.8832 14.3409 34.5321 14.3409Z" fill="white"/>
<path d="M43.0057 16.1395H48.8464C49.4953 16.1395 50.033 15.6018 50.033 14.9528V9.64989C50.033 9.00093 49.4953 8.46323 48.8464 8.46323H43.0057C42.3568 8.46323 41.8191 9.00093 41.8191 9.64989V14.9528C41.8005 15.6018 42.3382 16.1395 43.0057 16.1395Z" fill="white"/>
<path d="M48.6609 34.366H42.8202C42.1527 34.366 41.6335 34.9037 41.6335 35.5526V40.8556C41.6335 41.5045 42.1713 42.0422 42.8202 42.0422H48.6609C49.3098 42.0422 49.8475 41.5045 49.8475 40.8556V35.5526C49.8475 34.9037 49.3098 34.366 48.6609 34.366Z" fill="white"/>
<path d="M48.9021 19.1432H44.86C44.1925 19.1432 43.6733 19.681 43.6733 20.3299V23.9641C43.6733 24.613 44.2111 25.1508 44.86 25.1508H48.9021C49.5511 25.1508 50.0888 24.613 50.0888 23.9641V20.3299C50.1073 19.681 49.5696 19.1432 48.9021 19.1432Z" fill="white"/>
<path d="M38.6484 28.6737H34.6064C33.9574 28.6737 33.4197 29.2114 33.4197 29.8603V33.4945C33.4197 34.1435 33.9574 34.6812 34.6064 34.6812H38.6484C39.2974 34.6812 39.8351 34.1435 39.8351 33.4945V29.8603C39.8537 29.2114 39.3159 28.6737 38.6484 28.6737Z" fill="white"/>
<path d="M39.7608 17.1964H37.9623C37.2948 17.1964 36.7756 17.7341 36.7756 18.383V19.922C36.7756 20.571 37.3133 21.1087 37.9623 21.1087H39.7608C40.4098 21.1087 40.9475 20.571 40.9475 19.922V18.383C40.9661 17.7155 40.4283 17.1964 39.7608 17.1964Z" fill="white"/>
<path d="M48.902 27.7651H47.1034C46.4545 27.7651 45.9167 28.3028 45.9167 28.9518V30.4908C45.9167 31.1397 46.4545 31.6774 47.1034 31.6774H48.902C49.5509 31.6774 50.0886 31.1397 50.0886 30.4908V28.9703C50.1072 28.3028 49.5695 27.7651 48.902 27.7651Z" fill="white"/>
<path d="M36.4049 38.1299H34.6064C33.9574 38.1299 33.4197 38.6676 33.4197 39.3166V40.8556C33.4197 41.5045 33.9574 42.0422 34.6064 42.0422H36.4049C37.0539 42.0422 37.5916 41.5045 37.5916 40.8556V39.3166C37.6101 38.6676 37.0724 38.1299 36.4049 38.1299Z" fill="white"/>
<path d="M27.6903 25.911H25.8918C25.2428 25.911 24.7051 26.4487 24.7051 27.0976V28.6366C24.7051 29.2856 25.2428 29.8233 25.8918 29.8233H27.6903C28.3393 29.8233 28.877 29.2856 28.877 28.6366V27.1162C28.877 26.4487 28.3578 25.911 27.6903 25.911Z" fill="white"/>
<path d="M27.653 33.3091V33.3462C27.3749 33.3276 27.0967 33.3091 26.8372 33.3276C26.9299 33.3091 27.2265 33.2906 27.653 33.3091Z" fill="white"/>
<path d="M0.111084 56.0396H6.56359C8.04693 56.0396 9.38193 56.3177 10.5315 56.874C11.6811 57.4302 12.5896 58.2275 13.2201 59.2473C13.8505 60.2671 14.1657 61.4723 14.1657 62.8444C14.1657 64.2165 13.8505 65.4217 13.2201 66.4415C12.5896 67.4613 11.6811 68.2586 10.5315 68.8148C9.38193 69.3711 8.04693 69.6492 6.56359 69.6492H0.111084V56.0396ZM6.39672 66.5898C7.56484 66.5898 8.51047 66.2561 9.21506 65.5886C9.91964 64.9211 10.2719 64.0125 10.2719 62.8444C10.2719 61.6763 9.91964 60.7677 9.21506 60.1002C8.51047 59.4327 7.56484 59.099 6.39672 59.099H3.96775V66.5713H6.39672V66.5898Z" fill="white"/>
<path d="M17.7997 69.13C16.8912 68.6665 16.1866 68.0175 15.6674 67.1832C15.1483 66.3488 14.9072 65.4032 14.9072 64.3648C14.9072 63.3265 15.1668 62.3994 15.6674 61.565C16.1866 60.7307 16.8912 60.0817 17.7812 59.6367C18.6897 59.1732 19.7095 58.9507 20.8406 58.9507C21.9902 58.9507 23.0099 59.1732 23.9185 59.6367C24.827 60.1002 25.5316 60.7492 26.0322 61.565C26.5329 62.3809 26.7925 63.3265 26.7925 64.3834C26.7925 65.4402 26.5329 66.3673 26.0322 67.2017C25.5316 68.0361 24.827 68.685 23.9185 69.1486C23.0099 69.6121 21.9902 69.8532 20.8406 69.8532C19.7281 69.8346 18.7083 69.6121 17.7997 69.13ZM22.4537 66.219C22.8616 65.774 23.0841 65.1436 23.0841 64.3648C23.0841 63.5861 22.8802 62.9742 22.4537 62.5292C22.0458 62.0842 21.5081 61.8617 20.8591 61.8617C20.2102 61.8617 19.6724 62.0842 19.2645 62.5292C18.8566 62.9742 18.6341 63.5861 18.6341 64.3648C18.6341 65.1621 18.8381 65.774 19.2645 66.219C19.6724 66.664 20.2102 66.8865 20.8591 66.8865C21.4895 66.905 22.0272 66.6825 22.4537 66.219Z" fill="white"/>
<path d="M32.8371 59.3029C33.449 59.0619 34.135 58.9507 34.9138 58.9507V62.2882C34.58 62.2511 34.3019 62.2325 34.0794 62.2325C33.2821 62.2325 32.6702 62.455 32.2252 62.8815C31.7802 63.308 31.5577 63.9569 31.5577 64.8469V69.6677H27.8679V59.1175H31.3908V60.3784C31.7431 59.8963 32.2252 59.544 32.8371 59.3029Z" fill="white"/>
<path d="M33.208 73.0794L34.1351 70.4465C34.4688 70.6504 34.8582 70.7617 35.2847 70.7617C35.6184 70.7617 35.8966 70.6504 36.082 70.4094C36.2674 70.1684 36.3786 69.8346 36.3786 69.3711V59.1175H40.0684V69.3896C40.0684 70.6875 39.6976 71.7073 38.9374 72.4675C38.1772 73.2277 37.1203 73.5986 35.7668 73.5986C34.6913 73.6171 33.8384 73.4317 33.208 73.0794ZM36.5826 57.3746C36.1747 57.0038 35.9522 56.5402 35.9522 55.9654C35.9522 55.4092 36.1561 54.9456 36.5826 54.5563C36.9905 54.1854 37.5468 54 38.2143 54C38.8818 54 39.438 54.1854 39.8459 54.5377C40.2538 54.89 40.4764 55.3535 40.4764 55.9098C40.4764 56.4846 40.2724 56.9852 39.8459 57.356C39.438 57.7454 38.8818 57.9308 38.2143 57.9308C37.5468 57.9494 37.0091 57.764 36.5826 57.3746Z" fill="white"/>
<path d="M41.5333 57.3746C41.1253 57.0038 40.9028 56.5402 40.9028 55.9654C40.9028 55.4092 41.1068 54.9456 41.5333 54.5563C41.9412 54.1854 42.4974 54 43.1649 54C43.8324 54 44.3887 54.1854 44.7966 54.5377C45.2045 54.89 45.427 55.3535 45.427 55.9098C45.427 56.4846 45.223 56.9852 44.7966 57.356C44.3887 57.7454 43.8324 57.9308 43.1649 57.9308C42.4974 57.9494 41.9597 57.764 41.5333 57.3746ZM41.3293 59.1175H45.0191V69.6677H41.3293V59.1175Z" fill="white"/>
<path d="M48.8756 69.334C47.93 69.0188 47.1698 68.6109 46.6321 68.0917L47.3552 66.5713C47.8744 67.0348 48.5419 67.4242 49.3577 67.7023C50.1735 67.999 51.0079 68.1473 51.8608 68.1473C52.9919 68.1473 53.8263 67.9619 54.3825 67.5725C54.9388 67.1832 55.2169 66.6825 55.2169 66.0521C55.2169 65.5886 55.0685 65.1992 54.7533 64.9211C54.4567 64.6244 54.0673 64.4019 53.6223 64.2536C53.1773 64.1052 52.5469 63.9198 51.731 63.7344C50.7113 63.4934 49.8769 63.2338 49.2465 62.9927C48.616 62.7517 48.0783 62.3623 47.6333 61.8617C47.1883 61.3425 46.9658 60.6565 46.9658 59.785C46.9658 59.0619 47.1512 58.3944 47.5406 57.8196C47.93 57.2448 48.5048 56.7627 49.2835 56.4104C50.0623 56.0581 51.0265 55.8913 52.176 55.8913C52.9733 55.8913 53.7706 56.0025 54.5494 56.2065C55.3281 56.4104 55.9956 56.7071 56.5519 57.0965L55.9029 58.654C55.3281 58.2831 54.7163 58.0236 54.0673 57.8196C53.4183 57.6342 52.7879 57.5415 52.1575 57.5415C51.045 57.5415 50.2292 57.7454 49.6729 58.1534C49.1167 58.5613 48.8385 59.0804 48.8385 59.7108C48.8385 60.1744 48.9869 60.5638 49.3021 60.8419C49.6173 61.1386 50.0067 61.3611 50.4517 61.5279C50.9152 61.6948 51.5456 61.8617 52.3244 62.0471C53.3442 62.2882 54.1785 62.5477 54.7904 62.7888C55.4208 63.0298 55.94 63.4192 56.4035 63.9198C56.8485 64.4204 57.0711 65.1065 57.0711 65.9594C57.0711 66.6825 56.8856 67.3315 56.4963 67.9248C56.1069 68.5182 55.5135 68.9817 54.7163 69.334C53.919 69.6863 52.9548 69.8532 51.8052 69.8532C50.8225 69.8161 49.8212 69.6677 48.8756 69.334Z" fill="white"/>
<path d="M60.8351 69.093C60.0193 68.648 59.3703 68.0175 58.9253 67.2202C58.4618 66.423 58.2393 65.5144 58.2393 64.5132C58.2393 63.4934 58.4618 62.6034 58.9253 61.8061C59.3888 61.0088 60.0193 60.3784 60.8351 59.9334C61.6509 59.4884 62.578 59.2659 63.5978 59.2659C64.6176 59.2659 65.5447 59.4884 66.3605 59.9334C67.1764 60.3784 67.8068 61.0088 68.2703 61.8061C68.7339 62.6034 68.9564 63.5119 68.9564 64.5132C68.9564 65.533 68.7339 66.423 68.2703 67.2202C67.8068 68.0175 67.1764 68.648 66.3605 69.093C65.5447 69.5565 64.6361 69.779 63.5978 69.779C62.578 69.779 61.6509 69.5565 60.8351 69.093ZM65.3963 67.6838C65.9155 67.3871 66.342 66.9421 66.6386 66.4044C66.9353 65.8482 67.0836 65.2177 67.0836 64.5132C67.0836 63.8086 66.9353 63.1596 66.6386 62.6219C66.342 62.0657 65.9341 61.6392 65.3963 61.3425C64.8772 61.0459 64.2838 60.8975 63.6163 60.8975C62.9488 60.8975 62.3555 61.0459 61.8364 61.3425C61.3172 61.6392 60.8907 62.0657 60.5941 62.6219C60.2974 63.1782 60.1305 63.8086 60.1305 64.5132C60.1305 65.2363 60.2788 65.8667 60.5941 66.4044C60.8907 66.9607 61.3172 67.3871 61.8364 67.6838C62.3555 67.9805 62.9488 68.1473 63.6163 68.1473C64.2653 68.1473 64.8586 67.999 65.3963 67.6838Z" fill="white"/>
<path d="M72.4609 58.45V59.34H75.4646V60.8789H72.498V69.6677H70.6252V60.8789H68.8823V59.34H70.6252V58.4315C70.6252 57.4117 70.9219 56.5958 71.5152 56.0025C72.1086 55.4092 72.9429 55.1125 74.0184 55.1125C74.4263 55.1125 74.8157 55.1681 75.1865 55.2608C75.5573 55.3721 75.854 55.5204 76.1136 55.7058L75.5573 57.1335C75.1309 56.8183 74.6488 56.6514 74.1111 56.6514C73.0357 56.6329 72.4609 57.2448 72.4609 58.45Z" fill="white"/>
<path d="M84.2903 69.0559C84.0122 69.2969 83.6784 69.4638 83.2705 69.5936C82.8626 69.7233 82.4547 69.779 82.0282 69.779C80.9899 69.779 80.1926 69.5008 79.6178 68.9446C79.043 68.3883 78.7649 67.5911 78.7649 66.5527V60.879H77.022V59.34H78.7649V57.0779H80.6376V59.34H83.6043V60.879H80.6376V66.46C80.6376 67.0163 80.7859 67.4427 81.0641 67.7394C81.3422 68.0361 81.7501 68.1844 82.2693 68.1844C82.8441 68.1844 83.3262 68.0175 83.7341 67.7023L84.2903 69.0559Z" fill="white"/>
</svg>
